<mxfile host="app.diagrams.net" modified="2020-06-02T08:05:25.836Z" agent="5.0 (Macintosh; Intel Mac OS X 10_15_3) AppleWebKit/537.36 (KHTML, like Gecko) Chrome/83.0.4103.61 Safari/537.36" etag="Sh6Pa6rshHRfcu2YBmym" version="13.1.6" type="github">
  <diagram id="kCpKwJVJHfybIE9ixX9i" name="Page-1">
    <mxGraphModel dx="1186" dy="637" grid="1" gridSize="10" guides="1" tooltips="1" connect="1" arrows="1" fold="1" page="1" pageScale="1" pageWidth="827" pageHeight="1169" math="0" shadow="0">
      <root>
        <mxCell id="0" />
        <mxCell id="1" parent="0" />
        <mxCell id="SZwGPWXOhueTDgwkdfKL-69" value="" style="rounded=0;whiteSpace=wrap;html=1;dashed=1;" parent="1" vertex="1">
          <mxGeometry x="472" y="345.5" width="190" height="117.5" as="geometry" />
        </mxCell>
        <mxCell id="SZwGPWXOhueTDgwkdfKL-43" value="" style="rounded=0;whiteSpace=wrap;html=1;dashed=1;" parent="1" vertex="1">
          <mxGeometry x="402" y="777.42" width="161" height="91" as="geometry" />
        </mxCell>
        <mxCell id="SZwGPWXOhueTDgwkdfKL-52" value="" style="rounded=0;whiteSpace=wrap;html=1;dashed=1;" parent="1" vertex="1">
          <mxGeometry x="141" y="777.29" width="163.81" height="93" as="geometry" />
        </mxCell>
        <mxCell id="SZwGPWXOhueTDgwkdfKL-1" value="" style="rounded=0;whiteSpace=wrap;html=1;fillColor=none;labelPosition=center;verticalLabelPosition=middle;align=center;verticalAlign=middle;dashed=1;" parent="1" vertex="1">
          <mxGeometry x="189.25" y="500" width="390" height="225.5" as="geometry" />
        </mxCell>
        <mxCell id="SZwGPWXOhueTDgwkdfKL-9" value="接入模块" style="rounded=0;whiteSpace=wrap;html=1;" parent="1" vertex="1">
          <mxGeometry x="484" y="784.92" width="67.75" height="35" as="geometry" />
        </mxCell>
        <mxCell id="SZwGPWXOhueTDgwkdfKL-22" value="存证模块" style="rounded=0;whiteSpace=wrap;html=1;fillColor=none;" parent="1" vertex="1">
          <mxGeometry x="484" y="828.67" width="67.75" height="30" as="geometry" />
        </mxCell>
        <mxCell id="SZwGPWXOhueTDgwkdfKL-23" value="计算节点S1" style="rounded=0;whiteSpace=wrap;html=1;fillColor=none;" parent="1" vertex="1">
          <mxGeometry x="221" y="531" width="90" height="35" as="geometry" />
        </mxCell>
        <mxCell id="SZwGPWXOhueTDgwkdfKL-24" value="" style="endArrow=classic;html=1;exitX=0.25;exitY=0;exitDx=0;exitDy=0;entryX=0.25;entryY=1;entryDx=0;entryDy=0;" parent="1" source="SZwGPWXOhueTDgwkdfKL-26" target="SZwGPWXOhueTDgwkdfKL-23" edge="1">
          <mxGeometry width="50" height="50" relative="1" as="geometry">
            <mxPoint x="289.25" y="625.5" as="sourcePoint" />
            <mxPoint x="489.25" y="610.5" as="targetPoint" />
          </mxGeometry>
        </mxCell>
        <mxCell id="SZwGPWXOhueTDgwkdfKL-26" value="计算节点S2" style="rounded=0;whiteSpace=wrap;html=1;fillColor=none;" parent="1" vertex="1">
          <mxGeometry x="221" y="651.5" width="90" height="35" as="geometry" />
        </mxCell>
        <mxCell id="SZwGPWXOhueTDgwkdfKL-29" value="计算节点SB" style="rounded=0;whiteSpace=wrap;html=1;fillColor=none;" parent="1" vertex="1">
          <mxGeometry x="464.5" y="651.5" width="90" height="35" as="geometry" />
        </mxCell>
        <mxCell id="SZwGPWXOhueTDgwkdfKL-30" value="计算节点SA" style="rounded=0;whiteSpace=wrap;html=1;fillColor=none;" parent="1" vertex="1">
          <mxGeometry x="456" y="531" width="90" height="35" as="geometry" />
        </mxCell>
        <mxCell id="SZwGPWXOhueTDgwkdfKL-31" value="" style="endArrow=classic;html=1;exitX=0.75;exitY=1;exitDx=0;exitDy=0;entryX=0.75;entryY=0;entryDx=0;entryDy=0;" parent="1" source="SZwGPWXOhueTDgwkdfKL-23" target="SZwGPWXOhueTDgwkdfKL-26" edge="1">
          <mxGeometry width="50" height="50" relative="1" as="geometry">
            <mxPoint x="301.75" y="650.5" as="sourcePoint" />
            <mxPoint x="301.75" y="603" as="targetPoint" />
          </mxGeometry>
        </mxCell>
        <mxCell id="SZwGPWXOhueTDgwkdfKL-32" value="" style="endArrow=classic;html=1;exitX=1;exitY=0.5;exitDx=0;exitDy=0;entryX=0;entryY=0.5;entryDx=0;entryDy=0;" parent="1" source="SZwGPWXOhueTDgwkdfKL-23" target="SZwGPWXOhueTDgwkdfKL-30" edge="1">
          <mxGeometry width="50" height="50" relative="1" as="geometry">
            <mxPoint x="346.75" y="603" as="sourcePoint" />
            <mxPoint x="346.75" y="650.5" as="targetPoint" />
          </mxGeometry>
        </mxCell>
        <mxCell id="SZwGPWXOhueTDgwkdfKL-33" value="" style="endArrow=classic;html=1;exitX=1;exitY=0.5;exitDx=0;exitDy=0;entryX=0;entryY=0.5;entryDx=0;entryDy=0;" parent="1" source="SZwGPWXOhueTDgwkdfKL-26" target="SZwGPWXOhueTDgwkdfKL-29" edge="1">
          <mxGeometry width="50" height="50" relative="1" as="geometry">
            <mxPoint x="346.75" y="603" as="sourcePoint" />
            <mxPoint x="346.75" y="650.5" as="targetPoint" />
          </mxGeometry>
        </mxCell>
        <mxCell id="SZwGPWXOhueTDgwkdfKL-34" value="" style="endArrow=classic;html=1;exitX=1;exitY=0.5;exitDx=0;exitDy=0;entryX=0;entryY=0.5;entryDx=0;entryDy=0;" parent="1" source="SZwGPWXOhueTDgwkdfKL-26" target="SZwGPWXOhueTDgwkdfKL-30" edge="1">
          <mxGeometry width="50" height="50" relative="1" as="geometry">
            <mxPoint x="346.75" y="603" as="sourcePoint" />
            <mxPoint x="346.75" y="650.5" as="targetPoint" />
          </mxGeometry>
        </mxCell>
        <mxCell id="SZwGPWXOhueTDgwkdfKL-35" value="" style="endArrow=classic;html=1;exitX=1;exitY=0.5;exitDx=0;exitDy=0;entryX=0;entryY=0.5;entryDx=0;entryDy=0;" parent="1" source="SZwGPWXOhueTDgwkdfKL-23" target="SZwGPWXOhueTDgwkdfKL-29" edge="1">
          <mxGeometry width="50" height="50" relative="1" as="geometry">
            <mxPoint x="359.25" y="668" as="sourcePoint" />
            <mxPoint x="439.25" y="594.25" as="targetPoint" />
          </mxGeometry>
        </mxCell>
        <mxCell id="SZwGPWXOhueTDgwkdfKL-81" value="中间因子" style="text;html=1;align=center;verticalAlign=middle;resizable=0;points=[];labelBackgroundColor=#ffffff;" parent="SZwGPWXOhueTDgwkdfKL-35" vertex="1" connectable="0">
          <mxGeometry x="-0.1281" y="-1" relative="1" as="geometry">
            <mxPoint as="offset" />
          </mxGeometry>
        </mxCell>
        <mxCell id="SZwGPWXOhueTDgwkdfKL-36" value="某第三方机构" style="text;html=1;strokeColor=none;fillColor=none;align=center;verticalAlign=middle;whiteSpace=wrap;rounded=0;" parent="1" vertex="1">
          <mxGeometry x="464.5" y="690.5" width="82.88" height="20" as="geometry" />
        </mxCell>
        <mxCell id="SZwGPWXOhueTDgwkdfKL-37" value="某银行机构" style="text;html=1;strokeColor=none;fillColor=none;align=center;verticalAlign=middle;whiteSpace=wrap;rounded=0;" parent="1" vertex="1">
          <mxGeometry x="456" y="510" width="74" height="20" as="geometry" />
        </mxCell>
        <mxCell id="SZwGPWXOhueTDgwkdfKL-38" value="某监管机构" style="text;html=1;strokeColor=none;fillColor=none;align=center;verticalAlign=middle;whiteSpace=wrap;rounded=0;" parent="1" vertex="1">
          <mxGeometry x="221" y="510" width="65" height="20" as="geometry" />
        </mxCell>
        <mxCell id="SZwGPWXOhueTDgwkdfKL-41" value="某互联网金融机构" style="text;html=1;strokeColor=none;fillColor=none;align=center;verticalAlign=middle;whiteSpace=wrap;rounded=0;" parent="1" vertex="1">
          <mxGeometry x="221" y="690.5" width="109" height="20" as="geometry" />
        </mxCell>
        <mxCell id="SZwGPWXOhueTDgwkdfKL-42" value="" style="shape=datastore;whiteSpace=wrap;html=1;" parent="1" vertex="1">
          <mxGeometry x="415.62" y="816" width="28" height="30" as="geometry" />
        </mxCell>
        <mxCell id="SZwGPWXOhueTDgwkdfKL-44" value="" style="endArrow=classic;html=1;entryX=0;entryY=0.5;entryDx=0;entryDy=0;" parent="1" source="SZwGPWXOhueTDgwkdfKL-42" target="SZwGPWXOhueTDgwkdfKL-9" edge="1">
          <mxGeometry width="50" height="50" relative="1" as="geometry">
            <mxPoint x="377.5" y="762.42" as="sourcePoint" />
            <mxPoint x="427.5" y="712.42" as="targetPoint" />
          </mxGeometry>
        </mxCell>
        <mxCell id="SZwGPWXOhueTDgwkdfKL-75" value="明文" style="text;html=1;align=center;verticalAlign=middle;resizable=0;points=[];labelBackgroundColor=#ffffff;" parent="SZwGPWXOhueTDgwkdfKL-44" vertex="1" connectable="0">
          <mxGeometry x="-0.1422" y="-1" relative="1" as="geometry">
            <mxPoint as="offset" />
          </mxGeometry>
        </mxCell>
        <mxCell id="SZwGPWXOhueTDgwkdfKL-53" value="接入模块" style="rounded=0;whiteSpace=wrap;html=1;" parent="1" vertex="1">
          <mxGeometry x="221" y="783.79" width="74.06" height="35" as="geometry" />
        </mxCell>
        <mxCell id="SZwGPWXOhueTDgwkdfKL-54" value="存证模块" style="rounded=0;whiteSpace=wrap;html=1;fillColor=none;" parent="1" vertex="1">
          <mxGeometry x="221" y="827.54" width="72.81" height="30" as="geometry" />
        </mxCell>
        <mxCell id="SZwGPWXOhueTDgwkdfKL-55" value="" style="shape=datastore;whiteSpace=wrap;html=1;" parent="1" vertex="1">
          <mxGeometry x="151.25" y="814" width="29.81" height="30" as="geometry" />
        </mxCell>
        <mxCell id="SZwGPWXOhueTDgwkdfKL-56" value="明文" style="endArrow=classic;html=1;exitX=1;exitY=0.3;exitDx=0;exitDy=0;entryX=0;entryY=0.5;entryDx=0;entryDy=0;" parent="1" source="SZwGPWXOhueTDgwkdfKL-55" target="SZwGPWXOhueTDgwkdfKL-53" edge="1">
          <mxGeometry width="50" height="50" relative="1" as="geometry">
            <mxPoint x="123.56" y="753.29" as="sourcePoint" />
            <mxPoint x="173.56" y="703.29" as="targetPoint" />
          </mxGeometry>
        </mxCell>
        <mxCell id="SZwGPWXOhueTDgwkdfKL-57" value="某互联网金融机构" style="text;html=1;strokeColor=none;fillColor=none;align=center;verticalAlign=middle;whiteSpace=wrap;rounded=0;" parent="1" vertex="1">
          <mxGeometry x="141" y="757.42" width="99.94" height="20" as="geometry" />
        </mxCell>
        <mxCell id="SZwGPWXOhueTDgwkdfKL-70" value="输出节点" style="rounded=0;whiteSpace=wrap;html=1;" parent="1" vertex="1">
          <mxGeometry x="487" y="413" width="64" height="35" as="geometry" />
        </mxCell>
        <mxCell id="SZwGPWXOhueTDgwkdfKL-71" value="存证模块" style="rounded=0;whiteSpace=wrap;html=1;fillColor=none;" parent="1" vertex="1">
          <mxGeometry x="579.25" y="413" width="70" height="32" as="geometry" />
        </mxCell>
        <mxCell id="SZwGPWXOhueTDgwkdfKL-72" value="" style="shape=datastore;whiteSpace=wrap;html=1;" parent="1" vertex="1">
          <mxGeometry x="505" y="354" width="30.49" height="32.5" as="geometry" />
        </mxCell>
        <mxCell id="SZwGPWXOhueTDgwkdfKL-73" value="" style="endArrow=classic;html=1;exitX=0.5;exitY=0;exitDx=0;exitDy=0;" parent="1" source="SZwGPWXOhueTDgwkdfKL-70" target="SZwGPWXOhueTDgwkdfKL-72" edge="1">
          <mxGeometry width="50" height="50" relative="1" as="geometry">
            <mxPoint x="480.6900000000001" y="405.5" as="sourcePoint" />
            <mxPoint x="530.69" y="355.5" as="targetPoint" />
          </mxGeometry>
        </mxCell>
        <mxCell id="SZwGPWXOhueTDgwkdfKL-76" value="明文" style="text;html=1;align=center;verticalAlign=middle;resizable=0;points=[];labelBackgroundColor=#ffffff;" parent="SZwGPWXOhueTDgwkdfKL-73" vertex="1" connectable="0">
          <mxGeometry x="-0.0569" relative="1" as="geometry">
            <mxPoint as="offset" />
          </mxGeometry>
        </mxCell>
        <mxCell id="SZwGPWXOhueTDgwkdfKL-74" value="某监管机构" style="text;html=1;strokeColor=none;fillColor=none;align=center;verticalAlign=middle;whiteSpace=wrap;rounded=0;" parent="1" vertex="1">
          <mxGeometry x="534.74" y="325.5" width="64.51" height="20" as="geometry" />
        </mxCell>
        <mxCell id="WDAiJp-4TPZIHqZEOYhD-1" value="分布式存储服务（存证记录）" style="rounded=0;whiteSpace=wrap;html=1;dashed=1;" parent="1" vertex="1">
          <mxGeometry x="141" y="920" width="660" height="40" as="geometry" />
        </mxCell>
        <mxCell id="WDAiJp-4TPZIHqZEOYhD-6" value="3. 输入存证" style="endArrow=classic;html=1;exitX=0.5;exitY=1;exitDx=0;exitDy=0;entryX=0.176;entryY=-0.025;entryDx=0;entryDy=0;entryPerimeter=0;" parent="1" edge="1">
          <mxGeometry width="50" height="50" relative="1" as="geometry">
            <mxPoint x="257.405" y="868.54" as="sourcePoint" />
            <mxPoint x="257.1600000000001" y="921" as="targetPoint" />
          </mxGeometry>
        </mxCell>
        <mxCell id="01yYLrN6eulc1W3Ah3Q7-1" value="多方安全计算引擎" style="text;html=1;strokeColor=none;fillColor=none;align=center;verticalAlign=middle;whiteSpace=wrap;rounded=0;" parent="1" vertex="1">
          <mxGeometry x="189.25" y="480" width="100.75" height="20" as="geometry" />
        </mxCell>
        <mxCell id="HyGqtzqtbX2Nl6VqGr-e-2" value="" style="endArrow=classic;html=1;entryX=0.5;entryY=1;entryDx=0;entryDy=0;exitX=0.846;exitY=-0.013;exitDx=0;exitDy=0;exitPerimeter=0;" parent="1" source="SZwGPWXOhueTDgwkdfKL-1" target="SZwGPWXOhueTDgwkdfKL-70" edge="1">
          <mxGeometry width="50" height="50" relative="1" as="geometry">
            <mxPoint x="579" y="617" as="sourcePoint" />
            <mxPoint x="612.5" y="535" as="targetPoint" />
          </mxGeometry>
        </mxCell>
        <mxCell id="HyGqtzqtbX2Nl6VqGr-e-3" value="4.输出因子" style="text;html=1;align=center;verticalAlign=middle;resizable=0;points=[];labelBackgroundColor=#ffffff;" parent="HyGqtzqtbX2Nl6VqGr-e-2" vertex="1" connectable="0">
          <mxGeometry x="-0.056" y="3" relative="1" as="geometry">
            <mxPoint x="-2.210000000000001" y="5.380000000000001" as="offset" />
          </mxGeometry>
        </mxCell>
        <mxCell id="SZwGPWXOhueTDgwkdfKL-45" value="某银行机构" style="text;html=1;strokeColor=none;fillColor=none;align=center;verticalAlign=middle;whiteSpace=wrap;rounded=0;" parent="1" vertex="1">
          <mxGeometry x="402" y="757.29" width="68" height="20" as="geometry" />
        </mxCell>
        <mxCell id="514z2jhj-mgd7bg3V13R-2" value="" style="endArrow=classic;html=1;exitX=0.5;exitY=1;exitDx=0;exitDy=0;" parent="1" source="SZwGPWXOhueTDgwkdfKL-71" edge="1">
          <mxGeometry width="50" height="50" relative="1" as="geometry">
            <mxPoint x="384.5" y="898.69" as="sourcePoint" />
            <mxPoint x="614" y="920" as="targetPoint" />
          </mxGeometry>
        </mxCell>
        <mxCell id="514z2jhj-mgd7bg3V13R-3" value="5. 输出存证" style="edgeLabel;html=1;align=center;verticalAlign=middle;resizable=0;points=[];" parent="514z2jhj-mgd7bg3V13R-2" vertex="1" connectable="0">
          <mxGeometry x="0.0363" relative="1" as="geometry">
            <mxPoint x="17.98" y="-47" as="offset" />
          </mxGeometry>
        </mxCell>
        <mxCell id="BUfUKCFpLpPubceJvn2R-17" value="" style="endArrow=classic;html=1;exitX=0.75;exitY=0;exitDx=0;exitDy=0;entryX=0.192;entryY=1.002;entryDx=0;entryDy=0;entryPerimeter=0;" parent="1" source="SZwGPWXOhueTDgwkdfKL-52" target="SZwGPWXOhueTDgwkdfKL-1" edge="1">
          <mxGeometry width="50" height="50" relative="1" as="geometry">
            <mxPoint x="160" y="600" as="sourcePoint" />
            <mxPoint x="264" y="720" as="targetPoint" />
          </mxGeometry>
        </mxCell>
        <mxCell id="PdvxIYomY9WsL29uVKm9-6" value="&amp;nbsp;2. 计算因子" style="edgeLabel;html=1;align=center;verticalAlign=middle;resizable=0;points=[];" parent="BUfUKCFpLpPubceJvn2R-17" vertex="1" connectable="0">
          <mxGeometry x="0.1759" y="4" relative="1" as="geometry">
            <mxPoint x="7.94" y="3.0299999999999994" as="offset" />
          </mxGeometry>
        </mxCell>
        <mxCell id="BUfUKCFpLpPubceJvn2R-19" value="" style="endArrow=classic;html=1;entryX=0.75;entryY=1;entryDx=0;entryDy=0;exitX=0.5;exitY=0;exitDx=0;exitDy=0;" parent="1" source="SZwGPWXOhueTDgwkdfKL-43" target="SZwGPWXOhueTDgwkdfKL-1" edge="1">
          <mxGeometry width="50" height="50" relative="1" as="geometry">
            <mxPoint x="485" y="780" as="sourcePoint" />
            <mxPoint x="210" y="580" as="targetPoint" />
          </mxGeometry>
        </mxCell>
        <mxCell id="PdvxIYomY9WsL29uVKm9-5" value="2&#39;. 计算因子" style="edgeLabel;html=1;align=center;verticalAlign=middle;resizable=0;points=[];" parent="BUfUKCFpLpPubceJvn2R-19" vertex="1" connectable="0">
          <mxGeometry x="-0.191" y="-1" relative="1" as="geometry">
            <mxPoint x="38.4" y="-10.009999999999998" as="offset" />
          </mxGeometry>
        </mxCell>
        <mxCell id="BUfUKCFpLpPubceJvn2R-25" value="某监管机构业务系统" style="rounded=0;whiteSpace=wrap;html=1;" parent="1" vertex="1">
          <mxGeometry x="314.13" y="230" width="140.25" height="30" as="geometry" />
        </mxCell>
        <mxCell id="BUfUKCFpLpPubceJvn2R-27" value="" style="endArrow=classic;html=1;entryX=0.5;entryY=0;entryDx=0;entryDy=0;exitX=0.5;exitY=1;exitDx=0;exitDy=0;" parent="1" source="BUfUKCFpLpPubceJvn2R-25" target="SZwGPWXOhueTDgwkdfKL-1" edge="1">
          <mxGeometry width="50" height="50" relative="1" as="geometry">
            <mxPoint x="327.625" y="320" as="sourcePoint" />
            <mxPoint x="384.25" y="390" as="targetPoint" />
          </mxGeometry>
        </mxCell>
        <mxCell id="BUfUKCFpLpPubceJvn2R-28" value="1. 资金核验请求" style="edgeLabel;html=1;align=center;verticalAlign=middle;resizable=0;points=[];" parent="BUfUKCFpLpPubceJvn2R-27" vertex="1" connectable="0">
          <mxGeometry x="-0.1714" y="-2" relative="1" as="geometry">
            <mxPoint x="-10.93" y="32.7" as="offset" />
          </mxGeometry>
        </mxCell>
        <mxCell id="BUfUKCFpLpPubceJvn2R-31" value="" style="endArrow=classic;html=1;entryX=0.5;entryY=1;entryDx=0;entryDy=0;exitX=0.5;exitY=0;exitDx=0;exitDy=0;" parent="1" source="SZwGPWXOhueTDgwkdfKL-72" target="BUfUKCFpLpPubceJvn2R-25" edge="1">
          <mxGeometry width="50" height="50" relative="1" as="geometry">
            <mxPoint x="824.2200000000003" y="488" as="sourcePoint" />
            <mxPoint x="439.75" y="345" as="targetPoint" />
          </mxGeometry>
        </mxCell>
        <mxCell id="BUfUKCFpLpPubceJvn2R-32" value="6. 获取计算结果" style="edgeLabel;html=1;align=center;verticalAlign=middle;resizable=0;points=[];" parent="BUfUKCFpLpPubceJvn2R-31" vertex="1" connectable="0">
          <mxGeometry x="-0.1014" y="1" relative="1" as="geometry">
            <mxPoint as="offset" />
          </mxGeometry>
        </mxCell>
        <mxCell id="PdvxIYomY9WsL29uVKm9-1" value="" style="endArrow=classic;html=1;exitX=0.5;exitY=1;exitDx=0;exitDy=0;entryX=0.571;entryY=0;entryDx=0;entryDy=0;entryPerimeter=0;" parent="1" source="SZwGPWXOhueTDgwkdfKL-22" target="WDAiJp-4TPZIHqZEOYhD-1" edge="1">
          <mxGeometry width="50" height="50" relative="1" as="geometry">
            <mxPoint x="-56.5" y="509.25" as="sourcePoint" />
            <mxPoint x="541" y="960" as="targetPoint" />
          </mxGeometry>
        </mxCell>
        <mxCell id="MMj1MxV_JfH48vrgmoKu-3" value="3&#39;. 输入存证" style="edgeLabel;html=1;align=center;verticalAlign=middle;resizable=0;points=[];" parent="PdvxIYomY9WsL29uVKm9-1" vertex="1" connectable="0">
          <mxGeometry x="-0.032" relative="1" as="geometry">
            <mxPoint y="2" as="offset" />
          </mxGeometry>
        </mxCell>
      </root>
    </mxGraphModel>
  </diagram>
</mxfile>
